<svg xmlns="http://www.w3.org/2000/svg" width="84" height="73" viewBox="0 0 84 73">
  <g fill="none">
    <circle cx="22" cy="22" r="22" fill="#FDBA12"/>
    <path fill="#25262B" d="M34.4999553,68.7499911 L34.4999553,65 L19.4999911,65 L19.4999911,35.0000715 L64.4998838,35.0000715 L64.4998838,38.7500626 L68.2498748,38.7500626 L68.2498748,35.0000715 C68.2498748,32.9304125 66.5695428,31.2500805 64.4998838,31.2500805 L53.2499106,31.2500805 L53.2499106,23.7500983 C53.2499106,17.5411211 48.2089146,12.5001252 41.9999374,12.5001252 C35.7909602,12.5001252 30.7499642,17.5411211 30.7499642,23.7500983 L30.7499642,31.2500805 L19.4999911,31.2500805 C17.430332,31.2500805 15.75,32.9304125 15.75,35.0000715 L15.75,65 C15.75,67.0696591 17.430332,68.7499911 19.4999911,68.7499911 L34.4999553,68.7499911 Z M49.4999195,31.2500805 L34.4999553,31.2500805 L34.4999553,23.7500983 C34.4999553,19.6107802 37.8606193,16.2501162 41.9999374,16.2501162 C46.1392555,16.2501162 49.4999195,19.6107802 49.4999195,23.7500983 L49.4999195,31.2500805 Z M79.499848,72.4999821 C81.5695071,72.4999821 83.2498391,70.8196501 83.2498391,68.7499911 L83.2498391,46.2500447 C83.2498391,44.1803856 81.5695071,42.5000536 79.499848,42.5000536 L41.9999374,42.5000536 C39.9302783,42.5000536 38.2499464,44.1803856 38.2499464,46.2500447 L38.2499464,68.7499911 C38.2499464,70.8196501 39.9302783,72.4999821 41.9999374,72.4999821 L79.499848,72.4999821 Z M79.499848,68.7499911 L41.9999374,68.7499911 L41.9999374,46.2500447 L79.499848,46.2500447 L79.499848,68.7499911 Z"/>
    <path fill="#25262B" stroke="#25262B" stroke-width="2" d="M28.3920824,0.211600059 C27.9251678,0.0516609492 27.418436,0.306694089 27.2609527,0.780715209 C25.4188273,6.3280484 20.489709,10.1080815 14.9956508,10.1868737 C14.9156593,10.1879605 14.8362035,10.1886851 14.7563905,10.1886851 C8.4142083,10.1886851 3.55079727,6.6193078 1.74670353,0.640700569 C1.60243317,0.162513419 1.10302203,-0.106466851 0.631643621,0.0398873992 C0.160265211,0.186241649 -0.105063699,0.692685309 0.0393852209,1.17105358 C2.08541749,7.9517111 7.5871535,12 14.7563905,12 C14.8449525,12 14.9331574,11.9992755 15.0210052,11.9978264 C21.2706973,11.9083475 26.8695658,7.6329197 28.9530941,1.35906807 C29.1103988,0.885046949 28.8591755,0.371358029 28.3920824,0.211600059" transform="translate(46 52)"/>
  </g>
</svg>
